<svg version="1.1" xmlns="http://www.w3.org/2000/svg" style="display: block;" viewBox="0 0 2048 2048" width="1024" height="1024" preserveAspectRatio="none">
<path transform="translate(0,0)" fill="rgb(97,195,138)" d="M 414.066 819.38 C 455.65 817.627 508.881 819.063 551.232 819.066 L 811.828 819.081 L 984.775 819.111 C 1017.71 819.184 1051.79 817.848 1084.42 821.197 C 1169.84 829.966 1245.88 892.59 1270.43 974.925 C 1273.47 985.15 1275.96 995.528 1277.9 1006.02 C 1279.14 1012.85 1279.62 1019.91 1281.91 1026.45 C 1218.37 1057.04 1227.93 1099.26 1227.94 1160.65 L 1228.02 1279.93 L 1071.15 1279.72 C 1039.48 1279.52 1019.54 1278.93 995.418 1302.92 C 977.6 1320.63 972.254 1340.93 971.977 1365.61 C 971.738 1386.9 971.922 1408.14 971.92 1429.37 L 971.918 1574.25 C 971.724 1599.77 976.763 1618.23 993.249 1638.3 C 945.695 1639.56 892.935 1638.33 844.819 1638.4 L 534.606 1638.67 L 336.321 1638.62 C 302.723 1638.61 268.456 1638.91 234.842 1638.04 C 228.916 1637.89 222.063 1635.18 217.436 1631.4 C 210.714 1625.95 206.446 1618.05 205.581 1609.44 C 204.703 1601.35 205.167 1585.17 205.201 1576.42 L 205.268 1518.6 L 205.481 1319.16 L 205.799 1110.08 C 205.942 1078.97 203.375 1035.55 208.18 1005.81 C 214.123 969.244 229.061 934.727 251.649 905.363 C 293.653 851.731 347.986 827.332 414.066 819.38 z"/>
<path transform="translate(0,0)" fill="rgb(97,195,138)" d="M 1205.02 205.161 C 1237.04 204.63 1269.37 205.022 1301.66 205.112 C 1319.33 205.161 1354.83 201.42 1369.18 211.255 C 1383.3 220.929 1382.24 248.99 1383.84 265.486 C 1386.21 289.564 1388.73 313.627 1391.4 337.672 C 1418.66 343.902 1448.47 355.094 1473.9 366.925 C 1485.22 372.192 1495.97 378.608 1507.51 383.796 C 1523.81 371.056 1589.04 313.876 1602.48 310.49 C 1610.55 308.456 1620.18 310.266 1627.08 314.874 C 1641.1 324.235 1667.03 353.013 1680.52 366.399 C 1697.04 382.779 1717.98 400.955 1732.34 418.597 C 1735.39 422.353 1737.39 428.104 1738.08 432.839 C 1738.88 438.226 1738.61 444.564 1736.2 449.523 C 1730.63 460.966 1720.43 471.193 1712.59 481.146 C 1696.5 501.57 1680.08 521.839 1664.3 542.496 C 1682.49 576.202 1701.36 619.137 1709.9 656.434 C 1731.61 658.692 1818.06 664.726 1830.72 672.821 C 1836.21 676.332 1840.47 683.742 1841.73 690.037 C 1845.15 707.044 1843.05 750.921 1843.04 770.744 C 1843.04 793.082 1845.07 819.92 1842.4 841.754 C 1841.76 846.972 1840.07 851.722 1836.91 855.961 C 1833.67 860.3 1828.73 864.484 1823.6 866.352 C 1812.72 870.309 1798.98 870.399 1787.52 871.503 C 1761.58 874.002 1735.23 875.275 1709.42 878.704 C 1704.76 910.749 1679.21 964.768 1663.88 993.086 C 1675.41 1008.03 1734.53 1079.73 1737.66 1090.2 C 1740.01 1098.08 1738.42 1106.84 1734.48 1113.92 C 1730.15 1121.69 1640.98 1209.87 1630.49 1218.09 C 1624.87 1222.49 1619.77 1224.73 1613.01 1226.62 L 1612.93 1204 C 1612.99 1176.43 1616.59 1101.92 1610.37 1079.96 C 1607.16 1068.61 1601.04 1058.46 1593.14 1049.77 C 1583.6 1039.26 1571.56 1030.33 1557.72 1026.6 C 1533.07 1019.94 1503.11 1022.87 1477.63 1022.94 L 1361.26 1023.16 C 1347.04 1023.16 1328.3 1024.09 1314.61 1023.48 L 1314.86 1022.45 C 1319.63 1021.39 1324.67 1021.24 1330.04 1020.09 C 1399.4 1005.35 1459.78 963.035 1497.32 902.874 C 1533.26 846.792 1545.31 778.676 1530.8 713.666 C 1516.33 648.744 1474.37 587.842 1418.08 552.229 C 1360.24 514.881 1289.78 502.472 1222.66 517.815 C 1174.13 529.306 1130 554.66 1095.62 590.79 C 1088.35 598.353 1080.13 606.994 1074.64 615.845 C 1100.69 547.79 1107.59 488.828 1094.96 416.52 C 1092.15 400.465 1087.13 385.119 1083.25 369.236 C 1110.81 354.556 1139.58 345.691 1169.24 336.675 C 1171.57 315.006 1176.4 231.877 1184.81 218.584 C 1189.59 211.033 1196.46 207.086 1205.02 205.161 z"/>
<path transform="translate(0,0)" fill="rgb(97,195,138)" d="M 1332.24 1101.24 C 1333.23 1101.16 1334.23 1101.09 1335.23 1101.04 C 1366.96 1099.63 1403.51 1101.69 1435.94 1100.91 C 1459.46 1101.19 1483.03 1100.11 1506.47 1101.84 C 1520.03 1102.83 1534.45 1114.61 1534.86 1128.4 C 1537.09 1204.53 1534.87 1281.01 1536.02 1357.24 C 1551.26 1356.55 1570.24 1357.04 1585.71 1357.04 L 1675.98 1357.02 L 1729.52 1357.03 C 1745.28 1357.03 1768.23 1354.4 1780.3 1365.71 C 1789.21 1374.06 1791.71 1386.69 1791.72 1398.49 C 1791.73 1442.67 1791.21 1486.87 1791.67 1531.06 C 1791.78 1540.59 1791.95 1549.44 1790.69 1558.92 C 1789.7 1572.17 1774.83 1586.03 1761.48 1586.74 C 1739.21 1587.94 1715.09 1586.99 1692.59 1586.96 L 1535.41 1587.09 C 1536.98 1629.67 1535.06 1675.53 1535.77 1718.58 C 1535.51 1749.17 1536.39 1779.85 1535.25 1810.42 C 1534.65 1826.38 1523.95 1838.15 1508.75 1841.69 C 1498.5 1843.67 1461.76 1842.82 1449.5 1842.89 C 1415.3 1842.77 1380.9 1843.36 1346.72 1842.96 C 1304.1 1842.48 1305.58 1815.57 1305.64 1783.2 L 1305.61 1732.49 C 1305.57 1686.08 1304.06 1632.81 1305.62 1587 L 1146.57 1586.98 C 1124.57 1587.03 1098.16 1587.77 1076.16 1586.08 C 1071.17 1585.7 1064.22 1580.29 1060.54 1576.92 C 1051.89 1569.03 1049.69 1557.68 1049.78 1546.18 C 1050.03 1514.02 1050.06 1482.14 1050.05 1449.92 C 1050.38 1428.37 1048.81 1406.56 1050.95 1385.12 C 1051.38 1374.29 1063.84 1358.98 1074.93 1358.03 C 1098.17 1356.02 1123.98 1356.96 1147.39 1356.98 L 1306.1 1357.1 C 1304.27 1322.48 1306.38 1280.84 1305.67 1245.32 C 1305.81 1208.2 1305.18 1171.03 1306.22 1133.92 C 1306.69 1117.02 1317.29 1106.97 1332.24 1101.24 z"/>
<path transform="translate(0,0)" fill="rgb(97,195,138)" d="M 721.989 202.116 C 875.009 190.898 1008.22 305.689 1019.73 458.687 C 1031.24 611.685 916.706 745.116 763.73 756.919 C 610.34 768.755 476.469 653.84 464.927 500.428 C 453.385 347.016 568.555 213.364 721.989 202.116 z"/>
</svg>